# xmcd
#
# Track frame offsets: 
#        182
#        13685
#        26290
#        39917
#        51322
#        64642
#        76780
#        89272
#        100145
#        111700
#        123652
#        134587
#        149647
#        161312
#        171295
#        186025
#        199055
#        208835
#        218107
#        229812
#        241480
#        253805
#        263465
#        276755
#        288140
#        300102
#        312287
#        323907
#
# Disc length: 4478 seconds
#
# Revision: 10
# Processed by: cddbd v1.5.2PL0 Copyright (c) Steve Scherf et al.
# Submitted via: ExactAudioCopyFreeDBPlugin 1.0
#
DISCID=90117c1c
DTITLE=Various Artist - Atlantic Rhythm and Blues, 1947-1974
DYEAR=1991
DGENRE=Rhythm and Blues
TTITLE0=The Cardinals - The Door is Still Open
TTITLE1=Big Joe Turner - Flip, Flop and Fly
TTITLE2=Ray Charles - A Fool for You
TTITLE3=Ray Charles - This Little Girl of Mine
TTITLE4=LaVern Baker - Play it Fair
TTITLE5=The Drifters - Adorable
TTITLE6=The Robins - Smokey Joe's Café
TTITLE7=The Drifters - Ruby Baby
TTITLE8=The Cookies - In Paradise
TTITLE9=Big Joe Turner - The Chicken and the Hawk
TTITLE10=The Clovers - Devil or Angel
TTITLE11=Ray Charles - Drown in My Own Tears
TTITLE12=Ray Charles - Hallelujah I Love Her So
TTITLE13=LaVern Baker - Jim Dandy
TTITLE14=The Coasters - Down in Mexico
TTITLE15=Big Joe Turner - Corrine Corrina
TTITLE16=Clyde McPhatter - Treasure of Love
TTITLE17=The Clovers - Love Love Love
TTITLE18=Chuck Willis - It's Too Late
TTITLE19=Ray Charles - Lonely Avenue
TTITLE20=Ivory Joe Hunter - Since I Met You Baby
TTITLE21=Ruth Brown - Lucky Lips
TTITLE22=Clyde McPhatter - Without Love (There is Nothing)
TTITLE23=The Drifters - Fools Fall in Love
TTITLE24=Big Joe Turner - Midnight Special Train
TTITLE25=Ivory Joe Hunter - Empty Arms
TTITLE26=Chuck Willis - C.C. Rider
TTITLE27=The Coasters - Searchin'
EXTD=1955-1957\nCD issued 1991, Atlantic, 7 82305-2
EXTT0=The Cardinals
EXTT1=Joe Turner
EXTT2=Ray Charles
EXTT3=Ray Charles
EXTT4=LaVern Baker
EXTT5=The Drifters
EXTT6=The Robins
EXTT7=The Drifters
EXTT8=The Cookies
EXTT9=Joe Turner
EXTT10=The Clovers
EXTT11=Ray Charles
EXTT12=Ray Charles
EXTT13=LaVern Baker
EXTT14=The Coasters
EXTT15=Joe Turner
EXTT16=Clyde McPhatter
EXTT17=The Clovers
EXTT18=Chuck Willis
EXTT19=
EXTT20=Ivory Joe Hunter
EXTT21=Ruth Brown
EXTT22=Clyde McPhatter
EXTT23=The Drifters
EXTT24=Joe Turner
EXTT25=Ivory Joe Hunter
EXTT26=Chuck Willis
EXTT27=The Coasters
PLAYORDER=
